{
	"scenes":[{
		"nodes":[0]
	}],
	"asset":{
		"generator":"Created using the official Cinema 4D glTF Exporter 1.000x284978",
		"version":"2.0"
	},
	"bufferViews":[{
		"buffer":0,
		"byteOffset":0,
		"byteLength":3168,
		"target":34963
	},
	{
		"buffer":0,
		"byteOffset":3168,
		"byteLength":10336,
		"target":34962,
		"byteStride":32
	},
	{
		"buffer":1,
		"byteOffset":0,
		"byteLength":1456
	}],
	"nodes":[{
		"name":"Sphere",
		"translation":[-60.11106491088867,
		796.6442260742188,
		-53.2993049621582],
		"rotation":[0.0,
		0.0,
		0.0,
		-1.0],
		"scale":[1.0,
		1.0,
		1.0],
		"mesh":0
	}],
	"materials":[{
		"pbrMetallicRoughness":{
			"baseColorFactor":[0.8,
			0.008000000000000007,
			0.11360000000000037,
			1.0],
			"metallicFactor":0.0,
			"roughnessFactor":0.5
		},
		"emissiveFactor":[0.0,
		0.0,
		0.0],
		"alphaMode":"OPAQUE",
		"doubleSided":true,
		"name":"Mat"
	}],
	"meshes":[{
		"name":"Sphere",
		"primitives":[{
			"attributes":{
				"POSITION":1,
				"NORMAL":2,
				"TEXCOORD_0":3
			},
			"indices":0,
			"material":0
		}]
	}],
	"accessors":[{
		"componentType":5123,
		"bufferView":0,
		"type":"SCALAR",
		"min":[0],
		"count":1584,
		"byteOffset":0,
		"max":[322]
	},
	{
		"componentType":5126,
		"bufferView":1,
		"type":"VEC3",
		"min":[-20.0,
		-20.0,
		-20.0],
		"count":323,
		"byteOffset":0,
		"max":[20.0,
		20.0,
		20.0]
	},
	{
		"componentType":5126,
		"bufferView":1,
		"type":"VEC3",
		"min":[-1.0,
		-1.0,
		-1.0],
		"count":323,
		"byteOffset":12,
		"max":[1.0,
		1.0,
		1.0]
	},
	{
		"componentType":5126,
		"bufferView":1,
		"type":"VEC2",
		"min":[0.0,
		0.0],
		"count":323,
		"byteOffset":24,
		"max":[1.0,
		1.0]
	},
	{
		"componentType":5126,
		"bufferView":2,
		"type":"SCALAR",
		"min":[0.0],
		"count":91,
		"byteOffset":0,
		"max":[3.0]
	},
	{
		"componentType":5126,
		"bufferView":2,
		"type":"VEC3",
		"min":[-74.15196990966797,
		12.034706115722657,
		-70.560302734375],
		"count":91,
		"byteOffset":364,
		"max":[-60.11106491088867,
		796.6442260742188,
		-53.2993049621582]
	}],
	"animations":[{
		"samplers":[{
			"input":4,
			"interpolation":"LINEAR",
			"output":5
		}],
		"channels":[{
			"sampler":0,
			"target":{
				"node":0,
				"path":"translation"
			}
		}]
	}],
	"buffers":[{
		"uri":"data:application/octet-stream;base64,",
		"byteLength":13504
	},
	{
		"uri":"data:application/octet-stream;base64,",
		"byteLength":1456
	}]
}