{
	"nodes":[{
		"name":"Sphere.1",
		"translation":[-1.561108112335205,
		300.021240234375,
		-8.550227165222168],
		"rotation":[0.0,
		0.0,
		0.0,
		-1.0],
		"scale":[1.0,
		1.0,
		1.0],
		"mesh":0
	},
	{
		"name":"Sphere",
		"translation":[0.0,
		0.0,
		0.0],
		"rotation":[0.0,
		0.0,
		0.0,
		-1.0],
		"scale":[1.0,
		1.0,
		1.0],
		"mesh":1
	}],
	"asset":{
		"version":"2.0",
		"generator":"Created using the official Cinema 4D glTF Exporter 1.000x284978"
	},
	"scenes":[{
		"nodes":[0,
		1]
	}],
	"meshes":[{
		"name":"Sphere.1",
		"primitives":[{
			"attributes":{
				"POSITION":1,
				"NORMAL":2,
				"TEXCOORD_0":3
			},
			"indices":0,
			"material":0
		}]
	},
	{
		"name":"Sphere",
		"primitives":[{
			"attributes":{
				"POSITION":9,
				"NORMAL":10,
				"TEXCOORD_0":11
			},
			"indices":8,
			"material":1
		}]
	}],
	"accessors":[{
		"min":[0],
		"bufferView":0,
		"type":"SCALAR",
		"componentType":5123,
		"count":1584,
		"byteOffset":0,
		"max":[322]
	},
	{
		"min":[-20.0,
		-20.0,
		-20.0],
		"bufferView":1,
		"type":"VEC3",
		"componentType":5126,
		"count":323,
		"byteOffset":0,
		"max":[20.0,
		20.0,
		20.0]
	},
	{
		"min":[-1.0,
		-1.0,
		-1.0],
		"bufferView":1,
		"type":"VEC3",
		"componentType":5126,
		"count":323,
		"byteOffset":12,
		"max":[1.0,
		1.0,
		1.0]
	},
	{
		"min":[0.0,
		0.0],
		"bufferView":1,
		"type":"VEC2",
		"componentType":5126,
		"count":323,
		"byteOffset":24,
		"max":[1.0,
		1.0]
	},
	{
		"min":[0.0],
		"bufferView":2,
		"type":"SCALAR",
		"componentType":5126,
		"count":91,
		"byteOffset":0,
		"max":[3.0]
	},
	{
		"min":[-84.47948455810547,
		-1322.947998046875,
		-350.17041015625],
		"bufferView":2,
		"type":"VEC3",
		"componentType":5126,
		"count":91,
		"byteOffset":364,
		"max":[-1.561108112335205,
		300.021240234375,
		-8.550227165222168]
	},
	{
		"min":[0.0],
		"bufferView":3,
		"type":"SCALAR",
		"componentType":5126,
		"count":91,
		"byteOffset":0,
		"max":[3.0]
	},
	{
		"min":[-0.002022078027948737,
		-0.0007587583386339247,
		-0.23678462207317353,
		-1.0],
		"bufferView":3,
		"type":"VEC4",
		"componentType":5126,
		"count":91,
		"byteOffset":364,
		"max":[0.9714956283569336,
		0.010422694496810437,
		0.010630595497786999,
		0.9975938200950623]
	},
	{
		"min":[0],
		"bufferView":4,
		"type":"SCALAR",
		"componentType":5123,
		"count":1584,
		"byteOffset":0,
		"max":[322]
	},
	{
		"min":[-100.0,
		-100.0,
		-100.0],
		"bufferView":5,
		"type":"VEC3",
		"componentType":5126,
		"count":323,
		"byteOffset":0,
		"max":[100.0,
		100.0,
		100.0]
	},
	{
		"min":[-1.0,
		-1.0,
		-1.0],
		"bufferView":5,
		"type":"VEC3",
		"componentType":5126,
		"count":323,
		"byteOffset":12,
		"max":[1.0,
		1.0,
		1.0]
	},
	{
		"min":[0.0,
		0.0],
		"bufferView":5,
		"type":"VEC2",
		"componentType":5126,
		"count":323,
		"byteOffset":24,
		"max":[1.0,
		1.0]
	}],
	"bufferViews":[{
		"buffer":0,
		"byteOffset":0,
		"byteLength":3168,
		"target":34963
	},
	{
		"buffer":0,
		"byteOffset":3168,
		"byteLength":10336,
		"target":34962,
		"byteStride":32
	},
	{
		"buffer":1,
		"byteOffset":0,
		"byteLength":1456
	},
	{
		"buffer":1,
		"byteOffset":1456,
		"byteLength":1820
	},
	{
		"buffer":2,
		"byteOffset":0,
		"byteLength":3168,
		"target":34963
	},
	{
		"buffer":2,
		"byteOffset":3168,
		"byteLength":10336,
		"target":34962,
		"byteStride":32
	}],
	"buffers":[{
		"uri":"data:application/octet-stream;base64,",
		"byteLength":13504
	},
	{
		"uri":"data:application/octet-stream;base64,",
		"byteLength":3276
	},
	{
		"uri":"data:application/octet-stream;base64,",
		"byteLength":13504
	}],
	"materials":[{
		"doubleSided":false,
		"pbrMetallicRoughness":{
			"baseColorFactor":[0.8,
			0.8,
			0.8,
			1.0],
			"metallicFactor":0.0,
			"roughnessFactor":0.5
		},
		"emissiveFactor":[0.0,
		0.0,
		0.0],
		"alphaMode":"OPAQUE",
		"name":"Mat.1"
	},
	{
		"doubleSided":false,
		"pbrMetallicRoughness":{
			"baseColorFactor":[0.8,
			0.8,
			0.8,
			0.0],
			"metallicFactor":1.0,
			"roughnessFactor":1.0
		},
		"emissiveFactor":[0.0,
		0.0,
		0.0],
		"alphaMode":"BLEND",
		"name":"Mat"
	}],
	"animations":[{
		"samplers":[{
			"input":4,
			"interpolation":"LINEAR",
			"output":5
		},
		{
			"input":6,
			"interpolation":"LINEAR",
			"output":7
		}],
		"channels":[{
			"sampler":0,
			"target":{
				"node":0,
				"path":"translation"
			}
		},
		{
			"sampler":1,
			"target":{
				"node":0,
				"path":"rotation"
			}
		}]
	}]
}